<?xml version="1.0" standalone="no"?>
<!DOCTYPE svg PUBLIC "-//W3C//DTD SVG 20010904//EN"
 "http://www.w3.org/TR/2001/REC-SVG-20010904/DTD/svg10.dtd">
<svg version="1.0" xmlns="http://www.w3.org/2000/svg"
 width="2013.000000pt" height="2013.000000pt" viewBox="0 0 2013.000000 2013.000000"
 preserveAspectRatio="xMidYMid meet">
<metadata>
Created by potrace 1.11, written by Peter Selinger 2001-2013
</metadata>
<g transform="translate(0.000000,2013.000000) scale(0.100000,-0.100000)"
fill="#000000" stroke="none">
<path d="M11535 20067 c576 -506 1007 -1265 1180 -2077 23 -103 22 -100 30
-150 4 -25 9 -54 11 -64 2 -11 8 -56 14 -100 34 -250 41 -356 42 -601 1 -169
-5 -320 -17 -425 -2 -19 -6 -62 -9 -95 -21 -211 -97 -570 -166 -784 -27 -85
-89 -258 -105 -296 -65 -148 -94 -212 -131 -286 -97 -195 -238 -419 -365 -581
-96 -122 -110 -138 -209 -242 l-55 -58 79 6 c259 21 509 95 755 222 112 58
143 75 151 85 3 3 16 12 30 19 119 61 430 341 561 505 215 267 381 568 495
895 30 89 70 219 80 261 2 11 6 27 8 37 16 67 28 120 31 137 17 90 36 210 40
251 4 27 8 65 11 84 10 61 13 572 4 655 -16 151 -21 190 -37 275 -8 47 -17 99
-20 115 -2 17 -18 84 -34 150 -113 449 -308 856 -573 1195 -74 95 -109 133
-231 255 -425 425 -940 656 -1495 670 l-145 4 70 -62z"/>
<path d="M8552 19689 c-65 -8 -110 -15 -152 -24 -14 -3 -35 -7 -47 -9 -42 -9
-178 -48 -238 -68 -63 -22 -103 -48 -74 -48 48 0 405 -172 567 -273 45 -29 97
-61 115 -72 33 -20 251 -179 273 -200 6 -5 35 -30 65 -55 449 -378 840 -906
1080 -1459 28 -64 55 -125 60 -136 50 -111 168 -479 194 -603 2 -9 9 -39 15
-67 6 -27 14 -61 16 -75 4 -21 15 -73 19 -90 1 -3 5 -32 9 -65 5 -33 10 -69
12 -80 2 -11 7 -40 10 -65 3 -25 7 -56 10 -70 26 -157 25 -745 -1 -890 -3 -14
-7 -45 -10 -70 -3 -25 -13 -83 -21 -130 -9 -47 -18 -96 -21 -110 -20 -115
-118 -441 -163 -545 -49 -112 -68 -160 -65 -164 3 -2 52 20 111 49 862 428
1332 1470 1179 2610 -16 115 -19 131 -41 235 -8 39 -17 81 -20 95 -54 265
-246 732 -408 990 -152 242 -282 407 -471 596 -303 306 -640 527 -1010 663
-104 39 -307 96 -371 105 -16 2 -63 10 -104 16 -93 14 -433 21 -518 9z"/>
<path d="M15270 19416 c0 -2 26 -57 59 -122 32 -66 73 -155 91 -199 17 -44 36
-89 40 -100 55 -131 149 -472 174 -635 3 -19 8 -45 10 -56 7 -33 14 -83 21
-149 4 -33 9 -71 11 -85 28 -179 22 -714 -11 -935 -4 -22 -9 -60 -12 -85 -3
-25 -16 -101 -30 -170 -13 -69 -26 -136 -29 -150 -2 -14 -7 -36 -11 -50 -3
-14 -7 -31 -9 -39 -21 -107 -149 -501 -199 -616 -8 -16 -26 -59 -40 -95 -35
-85 -190 -394 -215 -430 -11 -15 -20 -31 -20 -35 0 -25 -299 -462 -359 -525
-9 -9 -28 -32 -43 -51 -69 -89 -323 -352 -418 -434 -269 -231 -494 -381 -782
-521 -65 -32 -117 -59 -115 -60 3 -4 155 -45 207 -56 75 -16 82 -17 180 -32
111 -17 459 -15 555 3 33 6 87 16 120 22 169 32 422 117 585 197 644 316 1171
893 1482 1622 69 162 157 425 183 550 2 8 12 58 24 110 31 149 44 233 55 355
4 44 9 96 11 115 6 49 6 420 1 450 -2 14 -7 59 -10 100 -3 41 -8 84 -10 96 -2
12 -7 45 -11 75 -12 93 -65 316 -107 447 -173 543 -493 981 -928 1271 -85 57
-101 67 -215 123 -53 27 -222 98 -231 98 -2 0 -4 -2 -4 -4z"/>
<path d="M6428 18475 c-2 -1 -46 -5 -98 -9 -247 -17 -478 -79 -695 -185 -111
-55 -253 -139 -282 -167 -7 -7 -18 -14 -25 -17 -25 -8 -3 -15 76 -21 44 -4 82
-8 85 -10 3 -2 29 -7 56 -10 187 -25 561 -136 764 -228 288 -129 509 -259 745
-437 224 -168 481 -411 641 -605 22 -27 48 -59 58 -70 195 -231 439 -634 567
-936 17 -41 38 -88 45 -105 19 -43 111 -319 130 -390 9 -33 18 -67 20 -75 8
-28 36 -154 45 -205 17 -84 17 -88 25 -145 4 -30 9 -64 11 -75 12 -57 19 -224
19 -425 0 -224 -6 -319 -26 -437 -6 -34 -9 -67 -7 -72 7 -23 190 152 318 305
52 62 153 222 204 325 162 322 237 667 230 1059 -2 85 -5 171 -8 190 -2 19 -7
60 -10 90 -6 48 -23 153 -41 245 -3 17 -19 80 -35 141 -281 1062 -1169 1956
-2185 2199 -55 14 -116 27 -135 30 -19 3 -46 7 -60 10 -49 9 -86 14 -160 20
-80 7 -268 14 -272 10z"/>
<path d="M18346 17468 c7 -35 15 -85 18 -113 3 -27 9 -81 13 -120 16 -145 9
-621 -12 -755 -2 -14 -7 -45 -10 -70 -11 -84 -35 -213 -60 -315 -9 -38 -19
-80 -21 -92 -2 -12 -8 -33 -13 -45 -5 -13 -9 -27 -10 -33 -6 -50 -106 -338
-168 -485 -248 -584 -669 -1161 -1138 -1558 -49 -42 -92 -79 -95 -82 -13 -15
-216 -164 -310 -227 -423 -284 -914 -484 -1367 -558 -56 -9 -110 -18 -120 -20
-10 -2 -37 -4 -61 -4 l-44 -1 29 -24 c67 -56 242 -155 375 -212 79 -34 277
-98 335 -108 14 -3 50 -10 78 -16 127 -26 277 -38 460 -35 105 2 201 6 215 9
14 2 72 12 130 21 256 41 526 129 770 251 120 60 191 99 248 136 15 10 40 25
56 34 167 94 507 387 686 590 253 287 472 639 603 964 43 107 78 201 83 219 2
9 13 48 24 86 29 96 58 204 64 240 52 278 61 371 60 610 0 169 -5 265 -19 345
-2 14 -7 45 -11 70 -3 25 -7 50 -8 55 -1 6 -8 37 -15 70 -7 33 -26 105 -42
160 -25 89 -39 129 -81 240 -23 61 -135 272 -178 335 -80 118 -156 214 -241
301 -86 88 -213 199 -227 199 -5 0 -3 -28 4 -62z"/>
<path d="M4371 16779 c-312 -47 -571 -144 -809 -304 -107 -72 -138 -97 -260
-218 -94 -92 -113 -118 -83 -112 19 3 88 11 191 21 60 5 358 5 390 0 14 -2 63
-7 110 -11 47 -3 94 -8 105 -10 11 -3 36 -7 55 -9 154 -22 466 -99 585 -146
11 -4 70 -27 130 -50 222 -86 507 -236 698 -367 78 -54 229 -165 254 -188 6
-5 31 -26 54 -45 82 -67 155 -134 260 -239 91 -92 135 -140 259 -287 56 -67
191 -258 259 -368 162 -265 300 -582 374 -866 24 -90 48 -197 52 -230 1 -8 5
-31 8 -50 17 -108 25 -177 26 -242 1 -52 16 -43 82 55 89 129 199 349 224 447
2 8 13 47 24 85 46 164 65 313 66 510 0 146 -9 259 -29 373 -83 458 -287 877
-621 1272 -88 104 -314 318 -424 400 -18 14 -45 35 -60 46 -81 66 -362 236
-471 286 -164 75 -272 116 -420 161 -99 30 -152 43 -300 72 -14 3 -45 8 -70
11 -25 3 -56 7 -70 11 -14 3 -124 7 -245 8 -175 2 -245 -1 -344 -16z"/>
<path d="M3537 14834 c-1 -1 -42 -5 -92 -8 -182 -13 -356 -46 -495 -94 -30
-11 -59 -20 -65 -22 -5 -1 -20 -6 -33 -11 -13 -5 -26 -9 -28 -9 -3 0 -31 -12
-62 -26 -31 -15 -75 -35 -97 -45 -164 -75 -350 -206 -492 -347 -131 -130 -202
-220 -288 -366 -59 -100 -67 -123 -37 -106 47 26 258 97 387 130 104 26 299
59 400 68 166 15 540 7 670 -13 537 -83 978 -260 1399 -559 173 -124 397 -325
511 -461 22 -26 49 -57 60 -68 32 -35 127 -164 192 -262 141 -213 266 -482
330 -710 31 -109 29 -110 84 30 59 152 98 312 116 475 13 118 6 364 -12 465
-69 377 -187 655 -405 950 -143 192 -288 337 -491 490 -179 134 -381 246 -584
325 -60 23 -119 46 -130 50 -11 5 -29 11 -40 13 -11 3 -56 15 -100 27 -95 26
-90 25 -235 50 -108 19 -221 29 -388 34 -40 1 -74 1 -75 0z"/>
<path d="M10679 13926 c-2 -2 -58 -7 -124 -10 -66 -4 -129 -9 -140 -12 -11 -2
-47 -6 -80 -9 -33 -3 -76 -7 -95 -10 -19 -2 -57 -7 -85 -9 -27 -3 -60 -8 -71
-10 -12 -2 -37 -7 -55 -10 -50 -8 -91 -16 -119 -21 -64 -13 -77 -15 -105 -19
-16 -2 -50 -9 -75 -16 -25 -7 -58 -14 -74 -16 -16 -2 -43 -8 -60 -13 -17 -6
-42 -12 -56 -15 -14 -3 -68 -17 -120 -31 -52 -15 -99 -28 -105 -29 -54 -12
-256 -80 -435 -145 -84 -31 -101 -38 -150 -59 -14 -6 -66 -29 -116 -51 -108
-47 -243 -108 -264 -121 -8 -5 -51 -27 -95 -49 -103 -53 -161 -85 -180 -101
-8 -7 -15 -10 -15 -7 0 13 -374 -223 -520 -328 -15 -11 -50 -36 -76 -55 -27
-19 -54 -39 -60 -45 -7 -5 -24 -19 -39 -29 -14 -11 -35 -27 -45 -35 -10 -9
-35 -29 -56 -46 -45 -36 -164 -135 -180 -150 -6 -5 -46 -41 -89 -80 -147 -131
-368 -358 -494 -505 -35 -41 -72 -84 -82 -95 -30 -33 -142 -176 -184 -235 -22
-30 -42 -57 -45 -60 -4 -3 -21 -27 -40 -55 -19 -27 -36 -52 -40 -55 -21 -18
-248 -382 -320 -515 -101 -185 -280 -556 -280 -579 0 -3 -9 -25 -20 -49 -25
-54 -57 -136 -82 -212 -11 -33 -26 -73 -33 -90 -7 -16 -21 -57 -30 -90 -9 -33
-19 -67 -22 -75 -4 -8 -7 -17 -8 -20 -1 -3 -4 -12 -8 -20 -8 -19 -57 -197 -63
-230 -3 -14 -8 -34 -11 -45 -4 -11 -8 -24 -9 -30 -1 -5 -16 -71 -32 -145 -28
-124 -42 -197 -57 -290 -3 -19 -7 -46 -10 -60 -3 -14 -7 -38 -9 -55 -2 -16 -7
-48 -10 -70 -7 -48 -12 -90 -21 -170 -3 -33 -8 -80 -11 -105 -9 -73 -15 -230
-19 -475 -2 -126 -5 -230 -5 -230 0 0 -3 -47 -5 -105 -7 -163 -21 -325 -41
-468 -2 -18 -6 -54 -9 -80 -3 -26 -8 -54 -10 -62 -2 -8 -7 -35 -10 -60 -3 -25
-8 -52 -10 -60 -3 -8 -7 -34 -10 -57 -4 -35 -20 -114 -40 -203 -32 -143 -61
-257 -90 -355 -20 -66 -40 -136 -45 -155 -10 -38 -99 -293 -123 -350 -24 -58
-30 -75 -33 -85 -11 -46 -212 -476 -269 -575 -31 -56 -94 -168 -120 -215 -16
-27 -41 -69 -56 -92 -16 -23 -29 -46 -29 -52 0 -5 -8 -15 -17 -20 -10 -6 -14
-11 -10 -11 5 0 -7 -22 -27 -49 -20 -27 -36 -53 -36 -59 0 -5 -6 -15 -13 -21
-8 -6 -44 -56 -82 -111 -37 -55 -72 -100 -77 -100 -4 0 -8 -5 -8 -11 0 -12
-68 -103 -147 -195 -10 -12 -30 -37 -45 -55 -27 -35 -36 -45 -116 -138 -126
-145 -353 -372 -517 -516 -37 -33 -73 -65 -79 -70 -12 -11 -111 -93 -136 -112
-77 -60 -100 -83 -88 -87 7 -3 51 -18 97 -35 46 -16 88 -28 93 -25 4 3 8 0 8
-5 0 -6 7 -11 15 -11 8 0 68 -16 133 -36 129 -40 121 -37 177 -49 55 -12 54
-12 60 -15 3 -1 8 -3 13 -4 36 -9 70 -17 87 -20 11 -3 63 -14 115 -26 52 -12
106 -23 120 -25 61 -8 107 -16 130 -20 14 -3 43 -7 65 -10 22 -4 65 -10 95
-15 30 -5 82 -11 115 -15 33 -3 78 -8 100 -11 44 -5 131 -12 270 -19 120 -7
550 -7 650 0 166 10 274 20 345 30 14 2 50 7 80 10 69 8 273 40 390 62 54 10
207 44 235 53 17 5 45 12 64 15 58 10 288 77 418 122 l72 25 49 97 c27 53 61
119 77 146 41 75 176 280 186 283 5 2 9 10 9 17 0 7 3 15 8 17 4 2 20 21 36
43 101 136 326 376 456 485 36 30 67 57 70 60 8 9 133 104 160 123 150 102
203 137 211 137 5 0 9 5 9 12 0 6 3 9 6 6 3 -4 21 4 40 17 19 13 72 42 117 65
45 23 89 45 97 50 84 50 477 196 573 214 12 3 23 5 25 7 3 2 19 6 152 36 8 2
26 5 40 7 25 4 67 12 107 20 23 5 87 14 143 21 144 18 486 24 635 10 44 -4 98
-8 120 -10 35 -3 108 -14 210 -31 17 -3 50 -10 75 -15 25 -6 52 -12 60 -14 73
-15 300 -79 335 -94 11 -5 36 -14 55 -21 47 -16 60 -22 165 -66 49 -22 92 -39
95 -39 3 0 42 -20 88 -45 l84 -45 -7 -75 c-3 -41 -8 -91 -10 -110 -2 -19 -6
-57 -9 -85 -3 -27 -7 -70 -10 -95 -3 -25 -8 -70 -11 -100 -3 -30 -8 -68 -10
-85 -4 -26 -10 -96 -20 -225 -2 -19 -4 -35 -5 -35 0 0 -3 -16 -4 -35 -2 -19
-6 -64 -10 -100 -4 -36 -9 -87 -12 -115 -2 -27 -7 -68 -9 -90 -3 -22 -7 -62
-10 -90 -3 -27 -8 -68 -10 -90 -3 -22 -7 -62 -10 -90 -3 -27 -7 -72 -10 -100
-3 -27 -7 -75 -10 -105 -3 -30 -7 -73 -9 -95 -3 -22 -8 -71 -11 -110 -3 -38
-8 -77 -11 -86 -6 -22 10 -33 81 -59 33 -12 74 -28 90 -35 68 -29 412 -165
418 -165 4 0 26 -9 50 -19 23 -11 71 -31 107 -45 147 -56 708 -279 747 -297
24 -10 46 -19 50 -19 7 0 91 -32 168 -65 17 -7 41 -17 55 -23 44 -18 351 -139
475 -187 66 -25 132 -53 147 -61 14 -7 32 -14 40 -14 7 -1 31 -9 53 -20 22
-11 44 -19 48 -20 5 0 33 -11 63 -25 30 -14 57 -25 60 -25 11 0 390 -152 426
-171 10 -5 26 -9 36 -9 10 0 22 -4 27 -8 6 -5 60 -28 120 -51 61 -24 124 -49
140 -56 17 -7 57 -23 90 -35 33 -13 119 -47 190 -76 72 -28 247 -98 390 -154
143 -56 274 -108 290 -115 17 -7 95 -38 175 -69 80 -31 154 -60 165 -65 11 -5
52 -21 90 -36 39 -15 84 -34 100 -41 17 -7 102 -40 190 -74 88 -34 174 -68
190 -75 44 -20 139 -57 150 -59 6 -2 24 -8 40 -16 41 -17 62 -26 120 -49 50
-19 178 -70 231 -92 16 -7 34 -13 39 -14 12 -3 156 -60 200 -80 17 -7 158 -63
315 -125 157 -61 304 -120 327 -131 24 -10 49 -19 56 -19 8 0 17 -3 21 -7 3
-4 12 -8 19 -9 10 -2 209 -82 282 -113 55 -24 78 -31 82 -28 2 3 -50 116 -117
252 -66 136 -120 248 -120 250 0 1 -56 117 -124 257 -68 139 -126 264 -130
276 -4 12 -12 22 -17 22 -5 0 -9 7 -9 15 0 8 -9 30 -20 50 -11 20 -20 42 -20
50 0 8 -4 15 -10 15 -5 0 -10 4 -10 10 0 5 -37 85 -81 177 -45 93 -107 222
-139 288 -32 66 -97 201 -146 300 -48 99 -87 183 -86 188 1 4 -2 7 -8 7 -6 0
-9 3 -8 8 3 6 -21 56 -138 296 -24 48 -44 94 -44 101 0 7 -3 15 -7 17 -7 3
-80 145 -85 166 -1 4 -30 63 -64 132 -34 69 -84 172 -112 230 -27 58 -89 186
-137 285 -48 99 -116 239 -150 310 -34 72 -84 175 -111 230 -27 55 -49 102
-50 105 0 3 -42 91 -93 195 -52 105 -122 249 -156 320 -142 295 -201 418 -277
575 -44 91 -110 226 -145 300 -36 74 -95 196 -130 270 -150 309 -215 446 -224
468 -8 20 -15 22 -86 23 -43 0 -87 2 -98 4 -11 2 -40 6 -65 9 -55 6 -185 40
-243 63 -87 35 -233 121 -283 168 -6 5 -31 28 -55 51 -25 22 -63 63 -84 90
-22 27 -42 51 -45 54 -7 6 -45 70 -78 130 -28 52 -69 158 -83 215 -5 22 -12
49 -14 60 -19 73 -25 264 -11 335 4 19 9 48 11 64 5 34 32 132 44 161 85 203
211 370 370 485 84 61 130 87 236 131 l90 38 1 91 c2 101 13 355 19 410 1 19
6 71 10 114 4 43 9 88 11 100 2 12 6 48 9 82 3 33 8 71 10 85 3 13 8 44 11 69
3 25 15 90 26 145 11 55 21 111 24 125 12 64 55 252 73 313 11 37 17 67 15 67
-3 0 1 10 7 22 7 13 13 33 15 45 2 20 36 132 51 173 4 8 7 17 8 20 24 81 84
252 115 325 151 365 203 474 362 760 25 44 54 96 66 115 12 19 25 42 29 50 3
8 9 17 12 20 10 8 81 127 81 135 0 8 -109 153 -154 206 -17 19 -43 51 -58 70
-15 19 -37 47 -50 60 -13 14 -52 59 -87 100 -64 73 -409 420 -467 469 -16 14
-58 50 -94 81 -36 31 -76 65 -89 75 -13 10 -28 24 -35 29 -6 6 -31 26 -56 45
-25 19 -50 39 -57 45 -58 51 -432 310 -524 363 -19 11 -90 52 -159 92 -117 68
-400 214 -500 258 -103 46 -240 102 -305 126 -38 15 -79 30 -90 35 -32 14 -89
35 -100 37 -21 3 -241 76 -258 85 -11 6 -21 8 -24 5 -3 -2 -17 0 -32 6 -14 5
-33 11 -41 14 -12 2 -164 42 -202 53 -4 1 -13 3 -20 6 -7 2 -38 9 -68 14 -30
6 -64 12 -75 15 -87 20 -238 46 -243 42 -3 -3 -10 -2 -16 3 -6 5 -33 11 -61
15 -27 3 -61 8 -75 11 -14 2 -52 7 -85 10 -33 3 -73 8 -90 10 -16 1 -68 6
-115 10 -47 3 -96 9 -110 12 -28 5 -715 14 -721 9z"/>
<path d="M2890 12934 c-109 -10 -153 -17 -268 -40 -405 -82 -840 -353 -1113
-694 -150 -187 -300 -473 -355 -675 -7 -27 -18 -65 -23 -82 l-10 -33 77 58
c352 266 715 423 1142 492 198 32 544 35 721 5 13 -2 40 -6 59 -9 46 -7 75
-13 131 -26 26 -6 53 -13 60 -14 67 -13 218 -62 332 -107 307 -122 582 -304
827 -549 197 -196 345 -401 469 -649 29 -57 54 -102 56 -100 2 2 6 22 9 44 4
22 9 56 12 75 3 19 8 38 10 41 6 11 18 204 18 299 -1 107 -11 231 -25 305 -5
28 -12 61 -14 75 -15 80 -29 133 -67 245 -64 191 -187 419 -315 583 -97 124
-284 308 -377 372 -304 206 -522 301 -826 359 -95 18 -122 21 -225 27 -55 3
-118 6 -140 7 -22 2 -96 -2 -165 -9z"/>
<path d="M2647 11014 c-1 -1 -38 -5 -82 -8 -44 -4 -102 -11 -130 -16 -27 -5
-61 -11 -75 -14 -162 -27 -423 -134 -590 -240 -144 -92 -332 -261 -437 -391
-141 -174 -258 -407 -326 -645 -24 -84 -31 -116 -43 -215 l-6 -50 53 51 c99
93 123 114 219 188 274 210 620 365 940 420 19 3 44 8 55 10 25 5 136 18 190
22 52 4 288 4 340 -1 305 -25 662 -133 898 -271 32 -19 60 -34 62 -34 8 0 165
-107 225 -153 138 -108 285 -253 380 -377 19 -25 38 -47 41 -50 3 -3 33 -47
67 -99 34 -52 62 -93 63 -90 0 2 2 13 5 24 7 32 6 274 -1 340 -65 608 -447
1155 -986 1413 -168 80 -198 91 -349 131 -67 17 -103 24 -190 37 -76 11 -316
24 -323 18z"/>
<path d="M2607 9349 c-27 -4 -70 -10 -95 -14 -26 -3 -55 -8 -64 -11 -9 -3 -25
-6 -35 -8 -152 -30 -383 -126 -527 -221 -192 -126 -357 -288 -483 -475 -86
-127 -204 -398 -227 -520 -2 -14 -9 -45 -15 -70 -5 -25 -13 -65 -16 -90 -8
-59 -19 -330 -13 -330 2 0 26 30 53 68 105 144 246 294 378 399 40 32 74 61
75 66 2 4 10 7 17 7 7 0 15 4 17 8 2 5 30 26 63 47 236 150 483 248 752 299
235 44 560 40 779 -9 34 -8 73 -16 85 -19 62 -13 182 -52 281 -92 253 -101
471 -246 672 -446 59 -59 110 -108 112 -108 2 0 2 6 -1 13 -2 6 -6 38 -9 69
-8 83 -40 223 -76 330 -137 407 -443 756 -831 945 -117 58 -304 122 -394 136
-16 3 -61 11 -100 17 -81 14 -328 19 -398 9z"/>
<path d="M2925 7800 c-27 -4 -69 -10 -92 -13 -110 -16 -241 -58 -371 -118 -91
-42 -218 -113 -232 -128 -3 -4 -30 -25 -60 -47 -276 -206 -477 -537 -555 -915
-19 -92 -26 -342 -13 -444 12 -93 40 -209 70 -300 17 -49 31 -91 33 -93 1 -1
21 55 44 125 51 152 134 324 218 449 34 50 68 97 75 105 7 8 26 32 42 53 48
64 195 206 286 278 169 132 352 229 556 298 215 71 363 95 594 95 310 0 539
-52 818 -185 67 -32 122 -57 122 -54 0 16 -89 176 -136 246 -225 332 -581 563
-976 634 -99 18 -340 25 -423 14z"/>
</g>
</svg>
